<mxfile host="app.diagrams.net" modified="2024-03-26T23:33:48.584Z" agent="Mozilla/5.0 (Macintosh; Intel Mac OS X 10_15_7) AppleWebKit/537.36 (KHTML, like Gecko) Chrome/119.0.0.0 Safari/537.36" version="24.1.0" etag="4quiz-vAt74v6LrWc2i7" type="github">
  <diagram name="ページ1" id="dhC7dpjMyy3n1bbPjUTI">
    <mxGraphModel>
      <root>
        <mxCell id="0" />
        <mxCell id="1" parent="0" />
      </root>
    </mxGraphModel>
  </diagram>
</mxfile>
